HIERARCHY
ROOT Hips
{
	OFFSET 0.000000 0.000000 0.000000
	CHANNELS 6 Xposition Yposition Zposition Xrotation Yrotation Zrotation
	JOINT LeftUpLeg_virtual
	{
		OFFSET 0.000000 0.000000 0.000000
		CHANNELS 3 Xrotation Yrotation Zrotation
		JOINT LeftUpLeg
		{
			OFFSET 11.394100 -6.187798 -0.413800
			CHANNELS 3 Xrotation Yrotation Zrotation
			JOINT LeftLeg
			{
				OFFSET 0.430247 -32.302673 3.732800
				CHANNELS 3 Xrotation Yrotation Zrotation
				JOINT LeftFoot
				{
					OFFSET -0.430247 -48.264931 -6.423300
					CHANNELS 3 Xrotation Yrotation Zrotation
					JOINT LeftToeBase
					{
						OFFSET 4.230900 -16.068199 23.438400
						CHANNELS 3 Xrotation Yrotation Zrotation
						JOINT LeftToe_End
						{
							OFFSET 4.510700 0.695400 19.974600
							CHANNELS 3 Xrotation Yrotation Zrotation
							End Site
							{
								OFFSET 0 0 0
							}
						}
					}
				}
			}
		}
	}
	JOINT RightUpLeg_virtual
	{
		OFFSET 0.000000 0.000000 0.000000
		CHANNELS 3 Xrotation Yrotation Zrotation
		JOINT RightUpLeg
		{
			OFFSET -11.333700 -6.187798 -0.413800
			CHANNELS 3 Xrotation Yrotation Zrotation
			JOINT RightLeg
			{
				OFFSET -0.430392 -32.302628 3.733000
				CHANNELS 3 Xrotation Yrotation Zrotation
				JOINT RightFoot
				{
					OFFSET 0.430392 -48.264973 -6.423500
					CHANNELS 3 Xrotation Yrotation Zrotation
					JOINT RightToeBase
					{
						OFFSET -4.230900 -16.068199 23.438400
						CHANNELS 3 Xrotation Yrotation Zrotation
						JOINT RightToe_End
						{
							OFFSET -4.510700 0.695400 19.974600
							CHANNELS 3 Xrotation Yrotation Zrotation
							End Site
							{
								OFFSET 0 0 0
							}
						}
					}
				}
			}
		}
	}
	JOINT Spine_virtual
	{
		OFFSET 0.000000 0.000000 0.000000
		CHANNELS 3 Xrotation Yrotation Zrotation
		JOINT Spine
		{
			OFFSET -0.002400 12.777504 0.315300
			CHANNELS 3 Xrotation Yrotation Zrotation
			JOINT Spine1
			{
				OFFSET -0.002067 5.816869 0.032633
				CHANNELS 3 Xrotation Yrotation Zrotation
				JOINT Spine1_split
				{
					OFFSET -0.002067 5.816869 0.032633
					CHANNELS 3 Xrotation Yrotation Zrotation
					JOINT Spine2
					{
						OFFSET -0.002067 5.816869 0.032633
						CHANNELS 3 Xrotation Yrotation Zrotation
						JOINT Neck_virtual
						{
							OFFSET 0.000000 0.000000 0.000000
							CHANNELS 3 Xrotation Yrotation Zrotation
							JOINT Neck
							{
								OFFSET -0.003700 21.199493 -0.826900
								CHANNELS 3 Xrotation Yrotation Zrotation
								JOINT Head
								{
									OFFSET 0.000000 20.442200 4.834800
									CHANNELS 3 Xrotation Yrotation Zrotation
									JOINT HeadTop_End
									{
										OFFSET 0.000000 34.668396 4.968400
										CHANNELS 3 Xrotation Yrotation Zrotation
										End Site
										{
											OFFSET 0 0 0
										}
									}
								}
							}
						}
						JOINT LeftShoulder_virtual
						{
							OFFSET 0.000000 0.000000 0.000000
							CHANNELS 3 Xrotation Yrotation Zrotation
							JOINT LeftShoulder
							{
								OFFSET 3.288150 8.794197 -1.372250
								CHANNELS 3 Xrotation Yrotation Zrotation
								JOINT LeftShoulder_split
								{
									OFFSET 3.288150 8.794197 -1.372250
									CHANNELS 3 Xrotation Yrotation Zrotation
									JOINT LeftArm
									{
										OFFSET 11.953299 -2.279007 -0.146200
										CHANNELS 3 Xrotation Yrotation Zrotation
										JOINT LeftForeArm
										{
											OFFSET 18.448900 0.000000 0.000000
											CHANNELS 3 Xrotation Yrotation Zrotation
											JOINT LeftHand
											{
												OFFSET 29.527798 0.000000 0.000000
												CHANNELS 3 Xrotation Yrotation Zrotation
												End Site
												{
													OFFSET 0 0 0
												}
											}
										}
									}
								}
							}
						}
						JOINT RightShoulder_virtual
						{
							OFFSET 0.000000 0.000000 0.000000
							CHANNELS 3 Xrotation Yrotation Zrotation
							JOINT RightShoulder
							{
								OFFSET -3.249400 8.794197 -1.372250
								CHANNELS 3 Xrotation Yrotation Zrotation
								JOINT RightShoulder_split
								{
									OFFSET -3.249400 8.794197 -1.372250
									CHANNELS 3 Xrotation Yrotation Zrotation
									JOINT RightArm
									{
										OFFSET -11.953299 -2.279007 -0.146200
										CHANNELS 3 Xrotation Yrotation Zrotation
										JOINT RightForeArm
										{
											OFFSET -18.448900 0.000000 0.000000
											CHANNELS 3 Xrotation Yrotation Zrotation
											JOINT RightHand
											{
												OFFSET -29.527802 0.000000 0.000000
												CHANNELS 3 Xrotation Yrotation Zrotation
												End Site
												{
													OFFSET 0 0 0
												}
											}
										}
									}
								}
							}
						}
					}
				}
			}
		}
	}
}
MOTION
Frames: 4
Frame Time: 0.03333333
6.348605 89.675606 -1.912327 0.000000 0.000000 0.000000 159.927227 -80.966387 169.245968 -17.832295 17.376724 16.420832 44.175375 10.461451 -7.657293 -14.735896 17.370249 -18.472528 -1.594027 0.000012 0.000002 0.000000 0.000000 0.000000 159.927227 -80.966387 169.245968 -51.495853 13.428681 -11.818210 45.580663 -3.799546 -8.516553 -2.223554 22.231311 13.667447 -0.012999 0.000008 -0.000002 0.000000 0.000000 0.000000 159.927227 -80.966387 169.245968 27.441622 -10.649408 9.342406 23.161376 -3.493222 1.352690 0.000000 0.000000 0.000000 0.000000 0.000000 0.000000 23.166757 -3.536857 1.303655 5.566819 -1.498433 -2.573734 -27.602637 15.614092 -15.598450 0.000000 0.000000 0.000000 23.166757 -3.536857 1.303655 -0.582100 -10.753513 13.082383 0.000000 0.000000 0.000000 15.295884 14.965067 -73.078933 -0.000035 -77.278386 -0.000022 0.000000 0.000000 0.000000 23.166757 -3.536857 1.303655 6.979282 20.126730 14.548984 0.000000 0.000000 0.000000 -57.790647 57.846826 49.544287 -179.999991 71.252288 179.999991 0.000000 0.000000 0.000000 
6.225058 89.393814 -2.429501 0.000000 0.000000 0.000000 163.247791 -84.983276 172.894081 -18.001503 16.957644 16.869020 44.791308 10.424728 -6.838975 -14.421448 13.795204 -18.895344 -1.594027 0.000012 0.000002 0.000000 0.000000 0.000000 163.247791 -84.983276 172.894081 -49.750435 13.473456 -13.581170 47.967660 -3.869992 -8.379576 -3.767592 19.413173 14.056890 -0.012999 0.000008 -0.000001 0.000000 0.000000 0.000000 163.247791 -84.983276 172.894081 26.987377 -10.559003 9.008486 22.828258 -3.476727 1.160359 0.000000 0.000000 0.000000 0.000000 0.000000 0.000000 22.831248 -3.513607 1.117198 5.617715 -1.103830 -3.287036 -24.500428 16.764404 -15.915164 0.000000 0.000000 0.000000 22.831248 -3.513607 1.117198 -0.574384 -9.850083 11.644918 0.000000 0.000000 0.000000 7.953497 23.817332 -68.381518 -0.000275 -83.763008 -0.000283 0.000000 0.000000 0.000000 22.831248 -3.513607 1.117198 6.747072 21.058549 15.296864 0.000000 0.000000 0.000000 -49.806815 49.425865 42.155876 179.999991 69.219029 -179.999978 0.000000 0.000000 0.000000 
6.133769 89.235504 -2.949650 0.000000 0.000000 0.000000 -71.563239 -89.635769 -61.745354 -18.706285 16.176118 17.452631 45.295499 10.387236 -5.772998 -13.932993 9.316621 -19.175411 -1.594027 0.000008 0.000002 0.000000 0.000000 0.000000 -71.563239 -89.635769 -61.745354 -47.112446 12.998374 -15.686544 49.916918 -4.016510 -8.287168 -5.327289 15.734825 14.606139 -0.012999 0.000008 -0.000002 0.000000 0.000000 0.000000 -71.563239 -89.635769 -61.745354 26.081444 -10.517241 8.794425 22.258185 -3.473021 1.011014 0.000000 0.000000 0.000000 0.000000 0.000000 0.000000 22.258231 -3.504561 0.974827 5.582332 -0.609717 -3.490657 -21.431950 18.334333 -15.324465 0.000000 0.000000 0.000000 22.258231 -3.504561 0.974827 -0.520524 -9.531915 10.234636 0.000000 0.000000 0.000000 1.463528 28.835467 -64.955065 -179.997423 -87.420404 -179.997451 0.000000 0.000000 0.000000 22.258231 -3.504561 0.974827 6.665674 21.639409 15.541470 0.000000 0.000000 0.000000 -46.863793 42.548359 39.774473 -179.999937 68.187322 179.999937 0.000000 0.000000 0.000000 
6.016282 89.168480 -3.421661 0.000000 0.000000 0.000000 -21.007995 -84.141640 -10.949270 -19.536224 15.373400 18.130437 45.563878 10.339022 -5.053861 -13.391590 4.279154 -19.160287 -1.594027 0.000012 0.000002 0.000000 0.000000 0.000000 -21.007995 -84.141640 -10.949270 -44.067704 12.156227 -18.146325 51.450323 -4.202699 -7.918316 -6.779693 12.029078 15.091513 -0.012999 0.000009 -0.000001 0.000000 0.000000 0.000000 -21.007995 -84.141640 -10.949270 24.796582 -10.660236 8.403126 21.504861 -3.561779 0.743005 0.000000 0.000000 0.000000 0.000000 0.000000 0.000000 21.500286 -3.591414 0.715279 5.405988 0.051953 -3.528799 -18.138641 20.379790 -14.230579 0.000000 0.000000 0.000000 21.500286 -3.591414 0.715279 -0.460465 -9.394472 9.008916 0.000000 0.000000 0.000000 -1.728992 29.114081 -63.687109 -179.999814 -78.356169 -179.999827 0.000000 0.000000 0.000000 21.500286 -3.591414 0.715279 6.805442 22.098819 15.068229 0.000000 0.000000 0.000000 -46.646507 38.030370 40.216492 -179.999896 68.071919 179.999896 0.000000 0.000000 0.000000 
